# xmcd
#
# Track frame offsets:
#	180
#	21804
#	39432
#	60760
#	78606
#	99422
#	117518
#	135147
#	152007
#	170688
#	190088
#
# Disc length: 2758 seconds
#
# Revision: 0
# Processed by: cddbd v1.5.2PL0 Copyright (c) Steve Scherf et al.
# Submitted via: EasyCDDAExtractor 16.1.0.1
#
DISCID=7e0ac40b
DTITLE=Atomes - Ricole
DYEAR=1997
DGENRE=Zouk
TTITLE0=Ricole
TTITLE1=Detresse
TTITLE2=Christ-Lov
TTITLE3=Kouran La VI
TTITLE4=Lydie
TTITLE5=Assassins
TTITLE6=L Ba'w, Baye
TTITLE7=Direction Les Antilles
TTITLE8=Padonne
TTITLE9=Reflexion
TTITLE10=Roule Molo
EXTD=
EXTT0=
EXTT1=
EXTT2=
EXTT3=
EXTT4=
EXTT5=
EXTT6=
EXTT7=
EXTT8=
EXTT9=
EXTT10=
PLAYORDER=
